<svg class="fidget" xmlns="http://www.w3.org/2000/svg" width="866" height="792" viewBox="0 0 866 792">
  <defs>
    <style>
      .a {
        fill: #444;
      }

      .b {
        fill: #222;
        stroke: #ccc;
        stroke-width: 20px;
      }

      .c {
        fill: #ccc;
      }
    </style>
  </defs>
  <title>fidget</title>
  <path class="a" d="M687.18,624.47C683.51,604,672.9,587,663,569.52c-13.39-23.56-27-47-40.46-70.53-6.92-12.12-14.25-24-20.36-36.57s-9.84-25.68-12.29-39.4a156.9,156.9,0,0,1-.82-49,152.5,152.5,0,0,1,19.42-56.52q21.4-36.91,42.5-74c9.45-16.6,19.51-32.93,27.75-50.12A100.92,100.92,0,0,0,688.54,153a112.86,112.86,0,0,0-9.95-51A110.75,110.75,0,0,0,570,36.63c-24.79,1.64-47.19,10.21-66,26.91-9.27,8.24-17.42,17.43-23.63,28.4-13.7,24.17-28,48-41.86,72.08-11.93,20.8-23.63,41.82-38.2,60.86C381.92,249,357.86,265.82,329,275.46c-11.68,3.9-23.55,7.2-36,7.52q-32,.84-64,1.49c-14.66.28-29.33.47-44,.49-12.33,0-24.67-.42-37-.41-5.33,0-10.67.61-16,.94h-.5c-8.33,2.17-16.84,3.82-25,6.61-16.84,5.78-31,15.88-43,28.93-14.48,15.79-24.08,34.18-27.46,55.48-1.18,7.42-2.23,15-1.9,22.48a113.26,113.26,0,0,0,8.41,39c9.37,22.31,23.89,40.56,44.94,53,15.39,9.08,32,15,50,16,11.81.62,23.66.54,35.5.56,34,.07,68-.52,102,.2,26.12.55,51.47,5.77,75,17.84,22.39,11.48,40.42,28,55.54,48,8.55,11.29,14.93,23.84,22,36,17.78,30.7,35.22,61.61,53.63,91.92,12.22,20.12,29.32,35.35,51.34,44.62A140,140,0,0,0,567,755.13c19.76,2.89,38.23-1.7,55.94-9.32a102.72,102.72,0,0,0,39.23-29.19A108.72,108.72,0,0,0,680.41,686C687.93,666.12,691,645.84,687.18,624.47ZM245,426.48C240,441,231,453,219.46,463c-9.95,8.59-21.26,15.38-34,18.3-12,2.75-24.37,3.9-37,1.92C133,480.74,119,475,107.13,465.34,88.22,449.85,76.39,430.06,74.42,405c-1.14-14.48,0-28.45,5.54-42a89,89,0,0,1,25.64-34.87c8.32-7,17.61-12.87,28.41-15.59,6.62-1.67,13.33-3,20-4.53h.5c13.71-.5,27.21.45,40,6,26.41,11.48,44.43,30.4,52.58,58.47C252.4,390.83,251,408.74,245,426.48ZM485.61,132C495,107.72,511.23,89.74,536,79.9a103.2,103.2,0,0,1,27.54-6.4h.5c11.7,0,23.44.19,34.48,4.56,16.44,6.51,30.85,16,41.5,30.45A87.18,87.18,0,0,1,656.91,155,89.25,89.25,0,0,1,645,206.48a79.36,79.36,0,0,1-28,29,93.53,93.53,0,0,1-36.49,13.16,88.64,88.64,0,0,1-29.5-.78,84.14,84.14,0,0,1-29-12c-17-10.94-29.72-25.5-35.92-45-2.1-6.59-2.73-13.64-4.13-20.46C479.28,157.31,480.85,144.36,485.61,132ZM651.88,662c-9.18,23.39-25.52,40.12-48.83,50.16-11,4.72-22.49,5.89-34,7.39h-.5A22.35,22.35,0,0,0,566,719c-12-1-23.61-3.11-34.51-8.49-13.9-6.85-25.58-16.34-34.45-29.05a89.07,89.07,0,0,1-15.63-40.72c-1.47-11.89-.05-23.34,3.07-34.77,4.47-16.37,13.54-29.78,26-41A87.15,87.15,0,0,1,559,543.17a85.69,85.69,0,0,1,44,5.89c27.1,11.41,44.5,31.77,51.82,60A84.81,84.81,0,0,1,651.88,662Z"/>
  <path class="b" d="M407.55,480.35c-20.42-6-36.33-18.56-48-36.35-13-19.77-16.61-41.33-12.56-64.51a84.42,84.42,0,0,1,22.1-44c14.22-15.22,32.08-23.65,52.46-27h.5c5.67,0,11.33.05,17,0,10.19-.12,19.67,2.67,29,6.47A85.66,85.66,0,0,1,504.45,343a79.37,79.37,0,0,1,15.75,36c1.54,10.1,1,20.68.14,30.94-1.21,14.74-7.36,27.93-16.42,39.45-13.46,17.1-30.71,28.12-52.37,32.78A87.94,87.94,0,0,1,407.55,480.35Z"/>
  <path class="c" d="M569.55,73.17c50.84.44,90.07,40.3,89.44,90.88-.55,47.6-40.89,86.46-89.22,85.95-50.06-.48-89.7-40.71-88.67-90.81C482.06,113.29,518.45,72.84,569.55,73.17Zm82.15,88.3c.26-44.65-35.59-80.53-80.86-80.9-46-.41-83,35.33-83,80.2-.11,45.09,36.18,82,80.94,82.22C614.71,243.29,651.4,207.19,651.7,161.47Z"/>
  <path d="M570.84,80.57c45.28.37,81.12,36.25,80.86,80.9-.29,45.72-37,81.82-83,81.52-44.76-.26-81-37.13-80.94-82.22C487.88,115.9,524.86,80.17,570.84,80.57Zm-.22,127.32c24.57.22,47.19-21.26,46-48.3-1.11-25.86-23.47-44.1-47-43.91-27,.22-47.08,20.59-46.09,47.45C524.53,187.81,543.91,208,570.62,207.89Z"/>
  <path class="c" d="M616.63,159.59c1.18,27-21.44,48.52-46,48.3-26.71.11-46.09-20.08-47-44.76-1-26.86,19.12-47.23,46.09-47.45C593.16,115.5,615.52,133.73,616.63,159.59ZM609,161.43c.7-16.1-11.49-32.49-27.81-37.32a40.36,40.36,0,0,0-14.51-1.92,3.16,3.16,0,0,0-.81.07c-8.14,1.29-14.44,3.72-19.78,7.66-8.4,6.23-13.3,15-14.55,26-2.1,18.35,7.52,34.78,23.95,40.89A40.7,40.7,0,0,0,570,199.53a38.83,38.83,0,0,0,21.48-6.45A39.53,39.53,0,0,0,609,161.43Z"/>
  <path d="M581.23,124.12c16.32,4.83,28.51,21.22,27.81,37.32a39.53,39.53,0,0,1-17.57,31.64A38.83,38.83,0,0,1,570,199.53a40.7,40.7,0,0,1-14.48-2.65c-16.43-6.12-26-22.55-23.95-40.89,1.25-11.05,6.15-19.82,14.55-26,5.34-3.94,11.64-6.37,19.78-7.66a3.16,3.16,0,0,1,.81-.07A40.36,40.36,0,0,1,581.23,124.12Zm20.45,37c.55-12.67-9.54-26.08-22.51-29.91a33.23,33.23,0,0,0-12-1.62h-.41c-6.89,1.14-11.94,3.09-16.28,6.3-6.7,4.94-10.61,12-11.64,21-1.69,14.92,6,28.22,19.23,33.16a31.86,31.86,0,0,0,43.58-28.88Z"/>
  <path class="c" d="M162.55,309.17c50.84.44,90.07,40.3,89.44,90.88-.55,47.6-40.89,86.46-89.22,85.95-50.06-.48-89.7-40.71-88.67-90.81C75.06,349.29,111.45,308.84,162.55,309.17Zm82.15,88.3c.26-44.65-35.59-80.53-80.86-80.9-46-.41-83,35.33-83,80.2-.11,45.09,36.18,82,80.94,82.22C207.71,479.29,244.4,443.19,244.7,397.47Z"/>
  <path d="M163.84,316.57c45.28.37,81.12,36.25,80.86,80.9-.29,45.72-37,81.82-83,81.52-44.76-.26-81-37.13-80.94-82.22C80.88,351.9,117.86,316.17,163.84,316.57Zm-.22,127.32c24.57.22,47.19-21.26,46-48.3-1.11-25.86-23.47-44.1-47-43.91-27,.22-47.08,20.59-46.09,47.45C117.53,423.81,136.91,444,163.62,443.89Z"/>
  <path class="c" d="M209.63,395.59c1.18,27-21.44,48.52-46,48.3-26.71.11-46.09-20.08-47-44.76-1-26.86,19.12-47.23,46.09-47.45C186.16,351.5,208.52,369.73,209.63,395.59ZM202,397.43c.7-16.1-11.49-32.49-27.81-37.32a40.36,40.36,0,0,0-14.51-1.92,3.16,3.16,0,0,0-.81.07c-8.14,1.29-14.44,3.72-19.78,7.66-8.4,6.23-13.3,15-14.55,26-2.1,18.35,7.52,34.78,23.95,40.89A40.7,40.7,0,0,0,163,435.53a38.83,38.83,0,0,0,21.48-6.45A39.53,39.53,0,0,0,202,397.43Z"/>
  <path d="M174.23,360.12c16.32,4.83,28.51,21.22,27.81,37.32a39.53,39.53,0,0,1-17.57,31.64A38.83,38.83,0,0,1,163,435.53a40.7,40.7,0,0,1-14.48-2.65c-16.43-6.12-26-22.55-23.95-40.89,1.25-11.05,6.15-19.82,14.55-26,5.34-3.94,11.64-6.37,19.78-7.66a3.16,3.16,0,0,1,.81-.07A40.36,40.36,0,0,1,174.23,360.12Zm20.45,37c.55-12.67-9.54-26.08-22.51-29.91a33.23,33.23,0,0,0-12-1.62h-.41c-6.89,1.14-11.94,3.09-16.28,6.3-6.7,4.94-10.61,12-11.64,21-1.69,14.92,6,28.22,19.23,33.16a31.86,31.86,0,0,0,43.58-28.88Z"/>
  <path class="c" d="M569.55,543.17c50.84.44,90.07,40.3,89.44,90.88-.55,47.6-40.89,86.46-89.22,85.95-50.06-.48-89.7-40.71-88.67-90.81C482.06,583.29,518.45,542.84,569.55,543.17Zm82.15,88.3c.26-44.65-35.59-80.53-80.86-80.9-46-.41-83,35.33-83,80.2-.11,45.09,36.18,82,80.94,82.22C614.71,713.29,651.4,677.19,651.7,631.47Z"/>
  <path d="M570.84,550.57c45.28.37,81.12,36.25,80.86,80.9-.29,45.72-37,81.82-83,81.52-44.76-.26-81-37.13-80.94-82.22C487.88,585.9,524.86,550.17,570.84,550.57Zm-.22,127.32c24.57.22,47.19-21.26,46-48.3-1.11-25.86-23.47-44.1-47-43.91-27,.22-47.08,20.59-46.09,47.45C524.53,657.81,543.91,678,570.62,677.89Z"/>
  <path class="c" d="M616.63,629.59c1.18,27-21.44,48.52-46,48.3-26.71.11-46.09-20.08-47-44.76-1-26.86,19.12-47.23,46.09-47.45C593.16,585.5,615.52,603.73,616.63,629.59ZM609,631.43c.7-16.1-11.49-32.49-27.81-37.32a40.36,40.36,0,0,0-14.51-1.92,3.16,3.16,0,0,0-.81.07c-8.14,1.29-14.44,3.72-19.78,7.66-8.4,6.23-13.3,15-14.55,26-2.1,18.35,7.52,34.78,23.95,40.89A40.7,40.7,0,0,0,570,669.53a38.83,38.83,0,0,0,21.48-6.45A39.53,39.53,0,0,0,609,631.43Z"/>
  <path d="M581.23,594.12c16.32,4.83,28.51,21.22,27.81,37.32a39.53,39.53,0,0,1-17.57,31.64A38.83,38.83,0,0,1,570,669.53a40.7,40.7,0,0,1-14.48-2.65c-16.43-6.12-26-22.55-23.95-40.89,1.25-11.05,6.15-19.82,14.55-26,5.34-3.94,11.64-6.37,19.78-7.66a3.16,3.16,0,0,1,.81-.07A40.36,40.36,0,0,1,581.23,594.12Zm20.45,37c.55-12.67-9.54-26.08-22.51-29.91a33.23,33.23,0,0,0-12-1.62h-.41c-6.89,1.14-11.94,3.09-16.28,6.3-6.7,4.94-10.61,12-11.64,21-1.69,14.92,6,28.22,19.23,33.16a31.86,31.86,0,0,0,43.58-28.88Z"/>
</svg>